<svg xmlns="http://www.w3.org/2000/svg" width="100" height="100" viewBox="0 0 100 100">
    <g fill="none" fill-rule="evenodd">
        <circle cx="50" cy="50" r="50" fill="#20D391"/>
        <path fill="#FFF" d="M29 25h43a4 4 0 0 1 4 4v43a4 4 0 0 1-4 4H29a4 4 0 0 1-4-4V29a4 4 0 0 1 4-4z"/>
        <g fill="#20D391" transform="translate(36 32)">
            <rect width="9.063" height="35.103" y=".949" rx="3.632"/>
            <rect width="9.063" height="35.103" x="19.938" y=".949" rx="3.632"/>
            <path d="M26.594 18.526v1.62c0 1.805-1.626 3.268-3.632 3.268H4.225c-2.005 0-3.631-1.463-3.631-3.269v-1.619c0-1.805 1.626-3.269 3.631-3.269h18.737c2.006 0 3.632 1.464 3.632 3.27z"/>
        </g>
        <g fill="#FFF">
            <path d="M247.095 192H225v-4.099c0-.767.616-1.39 1.381-1.4v-25.412c0-.774.627-1.401 1.401-1.401h12.408V149.4c0-.774.628-1.401 1.402-1.401h24.816c.774 0 1.402.627 1.402 1.401v10.287h12.408c.774 0 1.401.627 1.401 1.4V186.5c.765.011 1.381.634 1.381 1.401V192h-22.095v-13.724c0-.774-.628-1.401-1.401-1.401h-11.008c-.773 0-1.4.627-1.4 1.401V192z"/>
        </g>
    </g>
</svg>
