<svg xmlns="http://www.w3.org/2000/svg" width="100" height="100" viewBox="0 0 100 100">
    <g fill="none" fill-rule="evenodd">
        <circle cx="50" cy="50" r="50" fill="#FD9F06"/>
        <g transform="translate(21 23)">
            <path fill="#FFF" d="M58 14H0v-2.778A7.222 7.222 0 0 1 7.222 4h43.556A7.222 7.222 0 0 1 58 11.222V14zm0 2.444v31.667a7.222 7.222 0 0 1-7.222 7.222H7.222A7.222 7.222 0 0 1 0 48.111V16.444h58z"/>
            <rect width="6.17" height="8.556" x="12.34" fill="#FFF" rx="1.21"/>
            <rect width="6.17" height="8.556" x="39.489" fill="#FFF" rx="1.21"/>
            <rect width="46.894" height="26.889" x="6.17" y="22" fill="#FD9F06" rx="2.419"/>
        </g>
        <path fill="#FFF" d="M50.167 65.857a.623.623 0 0 1-.442-.18l-6.268-6.048c-.08-.07-2.29-2.089-2.29-4.5 0-2.943 1.798-4.7 4.801-4.7 1.758 0 3.405 1.386 4.199 2.17.793-.784 2.44-2.17 4.198-2.17 3.004 0 4.802 1.757 4.802 4.7 0 2.411-2.21 4.43-2.3 4.52l-6.258 6.027a.623.623 0 0 1-.442.181z"/>
    </g>
</svg>
