<svg xmlns="http://www.w3.org/2000/svg" width="100" height="100" viewBox="0 0 100 100">
    <g fill="none" fill-rule="evenodd">
        <circle cx="50" cy="50" r="50" fill="#235D9F"/>
        <path fill="#FFF" d="M55.6 63.993v9.118c0 .836-.639 1.52-1.42 1.52h-8.525c-.781 0-1.42-.684-1.42-1.52v-9.118c0-.836.639-1.52 1.42-1.52h8.525c.781 0 1.42.684 1.42 1.52zm11.224-22.796c0 7.219-4.582 9.992-7.956 12.006-2.095 1.292-3.41 3.913-3.41 5.015 0 .836-.603 1.824-1.42 1.824h-8.525c-.781 0-1.278-1.292-1.278-2.128v-1.71c0-4.597 4.262-8.548 7.387-10.068 2.735-1.33 3.872-2.583 3.872-5.015 0-2.127-2.593-4.027-5.47-4.027-1.598 0-3.054.532-3.836 1.102-.852.646-1.705 1.558-3.8 4.369-.284.38-.71.608-1.101.608-.32 0-.604-.114-.888-.304l-5.825-4.75c-.604-.493-.746-1.329-.355-2.013C38.054 29.306 43.453 26 50.699 26c7.6 0 16.125 6.497 16.125 15.197z"/>
    </g>
</svg>
