<svg xmlns="http://www.w3.org/2000/svg" width="100" height="100" viewBox="0 0 100 100">
    <g fill="none" fill-rule="evenodd">
        <circle cx="50" cy="50" r="50" fill="#30C4F7"/>
        <g fill="#FFF">
            <path d="M39.004 40h31.888a4.795 4.795 0 0 1 4.795 4.795v25.827a.374.374 0 0 1-.581.312l-3.822-2.537h-32.28a4.795 4.795 0 0 1-4.796-4.795V44.795A4.795 4.795 0 0 1 39.004 40z"/>
            <path d="M32.865 53.825v-9.787a5.61 5.61 0 0 1 5.61-5.61h19.556v-3.633A4.795 4.795 0 0 0 53.236 30h-24.33a4.795 4.795 0 0 0-4.796 4.795v20.916a.3.3 0 0 0 .468.247l3.132-2.133h5.155z"/>
        </g>
    </g>
</svg>
